<?xml version="1.0" standalone="no"?>
<!DOCTYPE svg PUBLIC "-//W3C//DTD SVG 20010904//EN"
 "http://www.w3.org/TR/2001/REC-SVG-20010904/DTD/svg10.dtd">
<svg version="1.0" xmlns="http://www.w3.org/2000/svg"
 width="5112.000000pt" height="6068.000000pt" viewBox="0 0 5112.000000 6068.000000"
 preserveAspectRatio="xMidYMid meet">

<g transform="translate(0.000000,6068.000000) scale(0.100000,-0.100000)"
fill="#000000" stroke="none">
<path d="M27515 60673 c-286 -11 -640 -39 -930 -74 -147 -17 -3704 -615 -3713
-624 -2 -2 -160 -1332 -352 -2955 -191 -1623 -350 -2953 -352 -2955 -1 -2
-1347 -818 -2991 -1814 l-2987 -1811 -2937 1165 c-2785 1105 -2938 1164 -2954
1147 -39 -39 -5752 -7308 -5752 -7317 0 -5 845 -1189 1878 -2630 1032 -1441
1879 -2624 1881 -2630 2 -5 -663 -1452 -1478 -3215 l-1483 -3205 -2670 -1542
-2670 -1542 3 -33 c5 -66 1305 -8083 1311 -8089 3 -3 1264 -247 2801 -543
1537 -296 2798 -541 2802 -545 5 -4 778 -1496 1719 -3316 941 -1821 1757
-3400 1814 -3511 l104 -201 -1083 -2170 -1084 -2171 3989 -3141 3989 -3140
2085 1590 2085 1590 3507 -574 3508 -574 929 -2919 c511 -1605 930 -2920 932
-2922 2 -4 10847 1328 10852 1333 2 2 -22 1459 -54 3239 -32 1779 -56 3236
-54 3239 3 2 1354 766 3004 1697 2981 1684 2998 1694 2965 1706 -19 6 -456
161 -972 343 -515 183 -943 331 -951 329 -7 -2 -1144 -662 -2525 -1467 -2042
-1191 -2511 -1469 -2511 -1485 -1 -53 -538 -6207 -542 -6212 -11 -10 -8070
-996 -8077 -988 -5 5 -493 1204 -1086 2664 -593 1460 -1080 2657 -1081 2658
-3 4 -7498 1461 -7529 1464 -12 1 -969 -571 -2245 -1342 -1224 -739 -2232
-1344 -2241 -1344 -14 -1 -5950 4661 -5963 4683 -3 4 366 926 819 2049 l824
2042 -2177 4073 -2177 4074 -2495 567 c-1372 313 -2498 571 -2502 575 -4 3
-223 1340 -488 2971 l-481 2965 22 15 c12 8 1104 683 2427 1500 l2405 1485
1604 3570 c1378 3065 1603 3574 1595 3595 -5 14 -739 1235 -1631 2714 -892
1479 -1620 2695 -1617 2702 9 23 4268 5429 4280 5432 6 1 1026 -330 2266 -737
1864 -612 2257 -745 2274 -765 12 -13 305 -318 651 -676 347 -359 631 -656
633 -661 2 -4 -36 5 -85 21 -1811 601 -5421 1779 -5430 1773 -11 -7 -3488
-4421 -3506 -4451 -4 -5 709 -1200 1585 -2654 875 -1453 1591 -2648 1591
-2654 0 -16 -3503 -7807 -3516 -7821 -7 -6 -1033 -642 -2282 -1414 -1248 -771
-2274 -1406 -2279 -1410 -6 -6 137 -915 375 -2385 350 -2168 386 -2377 404
-2385 11 -5 1093 -252 2404 -549 1311 -297 2385 -541 2387 -543 2 -1 1057
-1974 2344 -4382 1288 -2409 2356 -4405 2372 -4436 l31 -55 -773 -1914 c-425
-1053 -775 -1921 -777 -1930 -3 -10 757 -614 2467 -1960 1359 -1070 2475
-1946 2480 -1948 5 -2 961 573 2126 1278 l2116 1281 4172 -811 c2294 -446
4176 -816 4182 -823 6 -7 478 -1164 1049 -2572 571 -1408 1040 -2562 1042
-2565 2 -2 1505 180 3340 405 3129 385 3336 411 3344 430 4 11 123 1354 264
2985 142 1631 259 2967 260 2970 2 3 1077 631 2389 1395 1312 765 2385 1393
2386 1396 0 3 -2573 915 -5717 2027 l-5718 2021 -550 5 c-535 4 -665 9 -1060
41 -2593 211 -5073 1155 -7171 2730 -397 299 -634 498 -884 746 -1366 1352
-2246 3350 -2444 5549 -30 327 -39 552 -39 940 0 889 94 1681 303 2535 710
2911 2609 5376 5385 6992 1972 1148 4644 2043 8315 2784 1762 356 3392 625
6815 1125 3170 463 4385 657 5775 925 2145 413 3774 882 4884 1408 l130 61
-180 104 c-1147 659 -2737 1828 -4644 3415 -286 238 -963 815 -1155 983 l-39
35 -146 487 -147 488 -154 100 c-785 512 -2233 1432 -3254 2066 -5706 3547
-9835 5762 -11850 6357 -264 78 -618 155 -714 155 -17 0 -31 4 -31 9 0 4 34
188 75 407 87 460 96 485 205 594 75 75 157 120 275 151 105 28 339 30 499 5
261 -41 636 -155 1039 -316 279 -111 466 -192 1097 -472 278 -124 582 -257
675 -295 534 -222 889 -323 1129 -323 113 0 192 20 276 69 339 198 757 361
1190 465 718 172 1431 177 2133 15 71 -16 132 -29 137 -29 21 0 80 63 80 85 0
38 -58 85 -165 136 -132 63 -276 114 -715 254 -878 279 -1329 433 -1825 622
-1559 592 -2919 1327 -4085 2209 -209 158 -318 228 -465 299 -501 240 -1176
382 -2025 425 -174 9 -640 11 -825 3z"/>
<path d="M41925 38999 c-390 -60 -1018 -156 -1395 -213 -2737 -419 -4622 -747
-6310 -1097 -4071 -844 -6878 -1809 -8625 -2965 -1110 -734 -2057 -1659 -2757
-2694 -1365 -2016 -1867 -4503 -1387 -6870 170 -837 460 -1626 858 -2331 418
-742 934 -1356 1556 -1854 1110 -887 2364 -1564 3708 -2004 1206 -394 2476
-591 3737 -579 l315 3 3 30 c1 17 14 100 28 185 228 1402 977 2012 2679 2184
354 36 491 41 1140 41 632 0 794 -5 1360 -40 717 -46 1666 -131 1870 -169 102
-19 321 -20 417 -2 350 68 597 303 763 726 210 536 257 1432 129 2445 -14 109
-29 220 -34 245 -5 25 -7 46 -5 48 2 2 16 -3 32 -11 43 -22 208 -73 295 -91
94 -19 275 -21 343 -2 190 50 289 184 317 428 l11 96 -104 122 c-57 67 -106
126 -107 131 -5 14 165 186 293 296 129 111 311 235 437 299 96 48 265 109
336 120 73 12 147 114 188 264 14 51 18 102 18 235 0 209 -15 300 -89 525
-125 381 -150 599 -94 817 59 232 237 398 565 526 50 20 178 61 285 92 423
122 478 139 589 182 366 141 588 339 665 593 23 77 30 245 16 370 -38 329
-126 629 -493 1675 -389 1110 -552 1629 -723 2300 -424 1659 -544 3186 -369
4685 39 336 49 385 173 893 112 452 117 477 97 476 -12 0 -340 -50 -731 -110z"/>
</g>
</svg>
